<svg xmlns="http://www.w3.org/2000/svg"  viewBox="0 0 48 48" width="144px" height="144px" baseProfile="basic"><linearGradient id="bvEjD8y7f6LTu_wtNrsRga" x1="43.913" x2="9.262" y1="24" y2="24" gradientUnits="userSpaceOnUse"><stop offset="0" stop-color="#fce724"/><stop offset=".214" stop-color="#fdd01e"/><stop offset=".661" stop-color="#fe930e"/><stop offset="1" stop-color="#ff6201"/></linearGradient><circle cx="34" cy="24" r="14" fill="url(#bvEjD8y7f6LTu_wtNrsRga)"/><path fill="#ff9045" d="M20,24c0,4.529,2.16,8.544,5.495,11.103C28.278,32.223,30,28.311,30,24 s-1.722-8.223-4.505-11.103C22.16,15.456,20,19.471,20,24z" opacity=".05"/><path fill="#ff9045" d="M20,24c0,4.385,2.019,8.296,5.175,10.863C27.908,32.052,29.6,28.223,29.6,24 s-1.692-8.052-4.425-10.863C22.019,15.704,20,19.615,20,24z" opacity=".1"/><path fill="#ff9045" d="M20,24c0,4.242,1.894,8.035,4.874,10.603C27.546,31.862,29.2,28.124,29.2,24 s-1.654-7.862-4.326-10.603C21.894,15.965,20,19.758,20,24z" opacity=".2"/><path fill="#ff9045" d="M20,24c0,4.099,1.772,7.774,4.58,10.335C27.187,31.666,28.8,28.022,28.8,24 s-1.613-7.666-4.22-10.335C21.772,16.226,20,19.901,20,24z" opacity=".3"/><path fill="#ff9045" d="M20,24c0,3.956,1.647,7.521,4.285,10.067C26.827,31.47,28.4,27.92,28.4,24 c0-3.92-1.573-7.47-4.115-10.067C21.647,16.479,20,20.044,20,24z" opacity=".4"/><path fill="#fe8c0c" d="M28,24c0-4.892-2.514-9.185-6.317-11.684C18.789,15.366,17,19.474,17,24 s1.789,8.634,4.683,11.684C25.486,33.185,28,28.892,28,24z" opacity=".1"/><path fill="#fe8c0c" d="M28,24c0-4.621-2.25-8.702-5.704-11.247C19.487,15.675,17.75,19.634,17.75,24 s1.737,8.325,4.546,11.247C25.75,32.702,28,28.621,28,24z" opacity=".2"/><path fill="#fe8c0c" d="M28,24c0-4.352-1.991-8.229-5.108-10.792C20.179,16,18.5,19.804,18.5,24 s1.679,8,4.392,10.792C26.009,32.229,28,28.352,28,24z" opacity=".3"/><path fill="#fe8c0c" d="M28,24c0-4.083-1.757-7.744-4.546-10.299C20.857,16.36,19.25,19.992,19.25,24 c0,4.008,1.607,7.64,4.204,10.299C26.243,31.744,28,28.083,28,24z" opacity=".4"/><path fill="#ff9045" d="M20,24c0,3.812,1.528,7.264,4,9.789c2.472-2.525,4-5.977,4-9.789s-1.528-7.264-4-9.789	C21.528,16.736,20,20.188,20,24z"/><linearGradient id="bvEjD8y7f6LTu_wtNrsRgb" x1="0" x2="41.005" y1="24" y2="24" gradientUnits="userSpaceOnUse"><stop offset="0" stop-color="#f4805d" stop-opacity=".4"/><stop offset="1" stop-color="#ffd8bb" stop-opacity=".4"/></linearGradient><circle cx="14" cy="24" r="14" fill="url(#bvEjD8y7f6LTu_wtNrsRgb)"/><linearGradient id="bvEjD8y7f6LTu_wtNrsRgc" x1="22.885" x2="4.248" y1="14.038" y2="34.934" gradientUnits="userSpaceOnUse"><stop offset="0" stop-color="ivory" stop-opacity=".2"/><stop offset="1" stop-color="#ff9a83" stop-opacity=".4"/></linearGradient><path fill="url(#bvEjD8y7f6LTu_wtNrsRgc)" d="M14,10.5c7.444,0,13.5,6.056,13.5,13.5	S21.444,37.5,14,37.5S0.5,31.444,0.5,24S6.556,10.5,14,10.5 M14,10C6.268,10,0,16.268,0,24s6.268,14,14,14s14-6.268,14-14	S21.732,10,14,10L14,10z"/></svg>